<svg width="83" height="49" viewBox="0 0 83 49" fill="none" xmlns="http://www.w3.org/2000/svg">
<g clip-path="url(#clip0)">
<path d="M70.3194 48.9999H25.3611V46.6665H70.3194C73.0268 46.6662 75.6266 45.5942 77.5633 43.6795C79.4999 41.7649 80.6198 39.1596 80.6835 36.4203C80.7472 33.6811 79.7496 31.0254 77.9041 29.0207C76.0585 27.016 73.5114 25.8214 70.807 25.6922C70.6358 25.684 70.4684 25.6373 70.3172 25.5554C70.1661 25.4736 70.0348 25.3586 69.9331 25.2189C69.8314 25.0791 69.7618 24.9182 69.7293 24.7478C69.6968 24.5774 69.7023 24.4018 69.7453 24.2339C70.8315 20.0242 70.3274 15.5558 68.3316 11.7023C66.3358 7.84867 62.9917 4.88688 58.953 3.39579C54.9143 1.9047 50.4713 1.99151 46.4924 3.63924C42.5136 5.28698 39.285 8.3772 37.4376 12.3059C37.3541 12.4843 37.2272 12.6384 37.0688 12.7537C36.9103 12.869 36.7256 12.9417 36.5318 12.965C36.3381 12.9884 36.1417 12.9615 35.9609 12.887C35.7802 12.8126 35.6212 12.6929 35.4986 12.5392C33.7771 10.3594 31.3399 8.87704 28.6301 8.36143C25.9203 7.84582 23.1176 8.33118 20.7314 9.72934C18.3451 11.1275 16.5337 13.3456 15.6262 15.9807C14.7188 18.6158 14.7755 21.4929 15.7861 24.0892C15.8539 24.2639 15.8789 24.4525 15.8593 24.6391C15.8396 24.8257 15.7758 25.0047 15.6731 25.161C15.5705 25.3173 15.4322 25.4463 15.2698 25.5369C15.1075 25.6275 14.9259 25.6772 14.7406 25.6817C12.0569 25.812 9.52784 26.9909 7.68566 28.9703C5.84348 30.9496 4.83185 33.575 4.86366 36.294C4.89548 39.0129 5.96826 41.6133 7.85623 43.5479C9.74421 45.4826 12.3001 46.6005 14.9861 46.6665H21.7587V48.9999H14.9861C11.7823 49.0004 8.69722 47.773 6.35141 45.5647C4.00559 43.3564 2.57313 40.3309 2.3422 37.097C2.11126 33.8631 3.09898 30.6606 5.10666 28.1339C7.11434 25.6071 9.993 23.9436 13.1636 23.4779C12.8431 22.2901 12.6806 21.0644 12.6805 19.8332C12.683 17.0831 13.4857 14.3946 14.9884 12.1033C16.4912 9.81196 18.6276 8.01934 21.1307 6.94916C23.6339 5.87897 26.3931 5.57862 29.064 6.08559C31.7348 6.59256 34.1989 7.88439 36.1488 9.79986C38.3236 6.04488 41.6593 3.1189 45.6409 1.47371C49.6225 -0.171471 54.0286 -0.444354 58.1787 0.697201C62.3288 1.83876 65.9922 4.33126 68.6032 7.78983C71.2141 11.2484 72.6275 15.4807 72.625 19.8332C72.6223 21.0637 72.5038 22.2911 72.2711 23.4989C75.4266 23.9944 78.281 25.6772 80.2635 28.2108C82.2459 30.7443 83.2103 33.9419 82.9637 37.164C82.7171 40.3861 81.2777 43.3953 78.9334 45.5897C76.5891 47.7841 73.5127 49.002 70.3194 48.9999Z" fill="#FF8F54"/>
<path d="M65.7084 19.8333H63.4028C63.3998 17.0495 62.3057 14.3806 60.3607 12.4121C58.4157 10.4437 55.7785 9.33642 53.0278 9.33333V7C56.3898 7.00371 59.613 8.35698 61.9903 10.7629C64.3676 13.1688 65.7047 16.4309 65.7084 19.8333Z" fill="#FF8F54"/>
</g>
<defs>
<clipPath id="clip0">
<rect width="83" height="49" fill="white"/>
</clipPath>
</defs>
</svg>
