<svg width="20" height="20" viewBox="0 0 20 20" fill="none" xmlns="http://www.w3.org/2000/svg">
<path d="M16.0604 5.35355L16.0605 5.35361C16.3418 5.63482 16.4999 6.01625 16.5 6.414C16.5 6.41404 16.5 6.41407 16.5 6.41411V12C16.5 12.3978 16.342 12.7794 16.0607 13.0607C15.7794 13.342 15.3978 13.5 15 13.5H9C8.60218 13.5 8.22064 13.342 7.93934 13.0607C7.65804 12.7794 7.5 12.3978 7.5 12V4C7.5 3.60218 7.65804 3.22064 7.93934 2.93934C8.22064 2.65804 8.60218 2.5 9 2.5H12.5859C12.5859 2.5 12.586 2.5 12.586 2.5C12.9838 2.50011 13.3652 2.6582 13.6464 2.9395L13.6464 2.93955L16.0604 5.35355Z" fill="#828282" stroke="#828282"/>
<path d="M3 8C3 7.46957 3.21071 6.96086 3.58579 6.58579C3.96086 6.21071 4.46957 6 5 6V16H13C13 16.5304 12.7893 17.0391 12.4142 17.4142C12.0391 17.7893 11.5304 18 11 18H5C4.46957 18 3.96086 17.7893 3.58579 17.4142C3.21071 17.0391 3 16.5304 3 16V8Z" fill="#828282"/>
</svg>
