<svg width="14" height="16" viewBox="0 0 14 16" fill="none" xmlns="http://www.w3.org/2000/svg">
<path d="M8 16C7.73478 16 7.48043 15.8946 7.29289 15.7071C7.10536 15.5196 7 15.2652 7 15L7 13C7 12.7348 7.10536 12.4804 7.29289 12.2929C7.48043 12.1054 7.73478 12 8 12L13 12C13.2652 12 13.5196 12.1054 13.7071 12.2929C13.8946 12.4804 14 12.7348 14 13L14 15C14 15.2652 13.8946 15.5196 13.7071 15.7071C13.5196 15.8946 13.2652 16 13 16L8 16ZM4 10C3.73478 10 3.48043 9.89464 3.29289 9.70711C3.10536 9.51957 3 9.26522 3 9L3 7C3 6.73478 3.10536 6.48043 3.29289 6.29289C3.48043 6.10536 3.73478 6 4 6L13 6C13.2652 6 13.5196 6.10536 13.7071 6.29289C13.8946 6.48043 14 6.73478 14 7L14 9C14 9.26522 13.8946 9.51957 13.7071 9.70711C13.5196 9.89464 13.2652 10 13 10L4 10ZM0.999999 4C0.734783 4 0.480429 3.89464 0.292893 3.70711C0.105356 3.51957 -5.56655e-07 3.26522 -5.68248e-07 3L-6.55671e-07 1C-6.67264e-07 0.734783 0.105356 0.480429 0.292892 0.292892C0.480429 0.105356 0.734783 -3.21184e-08 0.999999 -4.37114e-08L13 -5.68248e-07C13.2652 -5.79841e-07 13.5196 0.105356 13.7071 0.292892C13.8946 0.480428 14 0.734783 14 0.999999L14 3C14 3.26522 13.8946 3.51957 13.7071 3.70711C13.5196 3.89464 13.2652 4 13 4L0.999999 4Z" fill="#333333"/>
</svg>
