<svg width="40" height="36" viewBox="0 0 40 36" fill="none" xmlns="http://www.w3.org/2000/svg">
<path d="M0 18C0 8.05887 8.05887 0 18 0H22C31.9411 0 40 8.05887 40 18V18C40 27.9411 31.9411 36 22 36H18C8.05887 36 0 27.9411 0 18V18Z" fill="#F2F2F2"/>
<path d="M17.5 18H22.5M17.5 21.3333H22.5M24.1667 25.5H15.8334C15.3913 25.5 14.9674 25.3244 14.6548 25.0118C14.3423 24.6993 14.1667 24.2754 14.1667 23.8333V12.1667C14.1667 11.7246 14.3423 11.3007 14.6548 10.9882C14.9674 10.6756 15.3913 10.5 15.8334 10.5H20.4884C20.7094 10.5 20.9213 10.5879 21.0775 10.7442L25.5892 15.2558C25.7455 15.4121 25.8333 15.624 25.8334 15.845V23.8333C25.8334 24.2754 25.6578 24.6993 25.3452 25.0118C25.0326 25.3244 24.6087 25.5 24.1667 25.5Z" stroke="#4F4F4F" stroke-width="2" stroke-linecap="round" stroke-linejoin="round"/>
</svg>
