<svg width="15" height="15" viewBox="0 0 15 15" fill="none" xmlns="http://www.w3.org/2000/svg">
<path d="M10.9396 1.93953L10.9396 1.93959L10.9456 1.93334C11.084 1.79007 11.2495 1.6758 11.4325 1.59718C11.6155 1.51857 11.8124 1.47719 12.0115 1.47546C12.2107 1.47373 12.4082 1.51168 12.5926 1.5871C12.7769 1.66252 12.9444 1.7739 13.0852 1.91474C13.2261 2.05558 13.3375 2.22306 13.4129 2.4074C13.4883 2.59175 13.5263 2.78927 13.5245 2.98844C13.5228 3.18761 13.4814 3.38444 13.4028 3.56744C13.3242 3.75045 13.2099 3.91596 13.0666 4.05434L13.0666 4.05428L13.0604 4.06043L12.621 4.49987L10.5001 2.37898L10.9396 1.93953ZM8.37862 4.50046L10.5007 6.62108L2.62091 14.5H0.5V12.3791L8.37862 4.50046Z" fill="#828282" stroke="#828282"/>
</svg>
