<svg width="20" height="20" viewBox="0 0 20 20" fill="none" xmlns="http://www.w3.org/2000/svg">
<path d="M12.6563 16.7705C12.7999 16.7705 12.9421 16.7422 13.0748 16.6873C13.2075 16.6323 13.3281 16.5517 13.4296 16.4502C13.5312 16.3486 13.6118 16.228 13.6667 16.0953C13.7217 15.9626 13.75 15.8204 13.75 15.6768C13.75 15.5331 13.7217 15.3909 13.6667 15.2582C13.6118 15.1255 13.5312 15.0049 13.4296 14.9034C13.3281 14.8018 13.2075 14.7212 13.0748 14.6663C12.9421 14.6113 12.7999 14.583 12.6563 14.583C12.5126 14.583 12.3704 14.6113 12.2377 14.6663C12.105 14.7212 11.9844 14.8018 11.8829 14.9034C11.7813 15.0049 11.7007 15.1255 11.6458 15.2582C11.5908 15.3909 11.5625 15.5331 11.5625 15.6768C11.5625 15.8204 11.5908 15.9626 11.6458 16.0953C11.7007 16.228 11.7813 16.3486 11.8829 16.4502C11.9844 16.5517 12.105 16.6323 12.2377 16.6873C12.3704 16.7422 12.5126 16.7705 12.6563 16.7705ZM12.6562 11.3018C12.9463 11.3018 13.2245 11.1865 13.4296 10.9814C13.6348 10.7763 13.75 10.4981 13.75 10.208C13.75 9.91793 13.6348 9.63973 13.4296 9.43461C13.2245 9.22949 12.9463 9.11426 12.6562 9.11426C12.3662 9.11426 12.088 9.22949 11.8829 9.43461C11.6777 9.63973 11.5625 9.91793 11.5625 10.208C11.5625 10.4981 11.6777 10.7763 11.8829 10.9814C12.088 11.1865 12.3662 11.3018 12.6562 11.3018ZM12.6562 5.83301C12.9463 5.83301 13.2245 5.71777 13.4296 5.51265C13.6348 5.30754 13.75 5.02934 13.75 4.73926C13.75 4.44918 13.6348 4.17098 13.4296 3.96586C13.2245 3.76074 12.9463 3.64551 12.6562 3.64551C12.3662 3.64551 12.088 3.76074 11.8829 3.96586C11.6777 4.17098 11.5625 4.44918 11.5625 4.73926C11.5625 5.02934 11.6777 5.30754 11.8829 5.51265C12.088 5.71777 12.3662 5.83301 12.6562 5.83301Z" fill="#828282" stroke="#828282"/>
<path d="M7.13544 16.7705C7.27907 16.7705 7.4213 16.7422 7.554 16.6873C7.6867 16.6323 7.80727 16.5517 7.90884 16.4502C8.0104 16.3486 8.09097 16.228 8.14593 16.0953C8.2009 15.9626 8.22919 15.8204 8.22919 15.6768C8.22919 15.5331 8.2009 15.3909 8.14593 15.2582C8.09096 15.1255 8.0104 15.0049 7.90884 14.9034C7.80727 14.8018 7.6867 14.7212 7.554 14.6663C7.4213 14.6113 7.27907 14.583 7.13544 14.583C6.9918 14.583 6.84958 14.6113 6.71688 14.6663C6.58418 14.7212 6.4636 14.8018 6.36204 14.9034C6.26047 15.0049 6.17991 15.1255 6.12494 15.2582C6.06998 15.3909 6.04169 15.5331 6.04169 15.6768C6.04169 15.8204 6.06998 15.9626 6.12494 16.0953C6.17991 16.228 6.26047 16.3486 6.36204 16.4502C6.4636 16.5517 6.58418 16.6323 6.71688 16.6873C6.84958 16.7422 6.9918 16.7705 7.13544 16.7705ZM7.13544 11.3018C7.42552 11.3018 7.70372 11.1865 7.90884 10.9814C8.11395 10.7763 8.22919 10.4981 8.22919 10.208C8.22919 9.91793 8.11395 9.63973 7.90884 9.43461C7.70372 9.22949 7.42552 9.11426 7.13544 9.11426C6.84536 9.11426 6.56716 9.22949 6.36204 9.43461C6.15692 9.63973 6.04169 9.91793 6.04169 10.208C6.04169 10.4981 6.15692 10.7763 6.36204 10.9814C6.56716 11.1865 6.84536 11.3018 7.13544 11.3018ZM7.13544 5.83301C7.42552 5.83301 7.70372 5.71777 7.90884 5.51265C8.11395 5.30754 8.22919 5.02934 8.22919 4.73926C8.22919 4.44918 8.11395 4.17098 7.90883 3.96586C7.70372 3.76074 7.42552 3.64551 7.13544 3.64551C6.84536 3.64551 6.56716 3.76074 6.36204 3.96586C6.15692 4.17098 6.04169 4.44918 6.04169 4.73926C6.04169 5.02934 6.15692 5.30754 6.36204 5.51265C6.56716 5.71777 6.84536 5.83301 7.13544 5.83301Z" fill="#828282" stroke="#828282"/>
</svg>
