<svg width="17" height="20" viewBox="0 0 17 20" fill="none" xmlns="http://www.w3.org/2000/svg">
<path d="M13 6.5V9V6.5Z" fill="white"/>
<path d="M4 9.5V12M4 9.5V3.5C4 3.10218 4.15804 2.72064 4.43934 2.43934C4.72064 2.15804 5.10218 2 5.5 2C5.89782 2 6.27936 2.15804 6.56066 2.43934C6.84196 2.72064 7 3.10218 7 3.5M4 9.5C4 9.10218 3.84196 8.72064 3.56066 8.43934C3.27936 8.15804 2.89782 8 2.5 8C2.10218 8 1.72064 8.15804 1.43934 8.43934C1.15804 8.72064 1 9.10218 1 9.5V11.5C1 13.4891 1.79018 15.3968 3.1967 16.8033C4.60322 18.2098 6.51088 19 8.5 19C10.4891 19 12.3968 18.2098 13.8033 16.8033C15.2098 15.3968 16 13.4891 16 11.5V6.5C16 6.10218 15.842 5.72064 15.5607 5.43934C15.2794 5.15804 14.8978 5 14.5 5C14.1022 5 13.7206 5.15804 13.4393 5.43934C13.158 5.72064 13 6.10218 13 6.5M7 3.5V9M7 3.5V2.5C7 2.10218 7.15804 1.72064 7.43934 1.43934C7.72064 1.15804 8.10218 1 8.5 1C8.89782 1 9.27936 1.15804 9.56066 1.43934C9.84196 1.72064 10 2.10218 10 2.5V3.5M13 6.5V3.5C13 3.10218 12.842 2.72064 12.5607 2.43934C12.2794 2.15804 11.8978 2 11.5 2C11.1022 2 10.7206 2.15804 10.4393 2.43934C10.158 2.72064 10 3.10218 10 3.5M13 6.5V9M10 3.5V9" stroke="#333333" stroke-width="2" stroke-linecap="round" stroke-linejoin="round"/>
</svg>
