<svg width="48" height="48" viewBox="0 0 48 48" fill="none" xmlns="http://www.w3.org/2000/svg">
<g clip-path="url(#clip0)">
<path fill-rule="evenodd" clip-rule="evenodd" d="M30.148 12.8232C30.078 12.6311 29.96 12.4601 29.8054 12.3264C29.6507 12.1926 29.4644 12.1007 29.2642 12.0592C29.0639 12.0177 28.8564 12.028 28.6614 12.0893C28.4663 12.1505 28.2901 12.2605 28.1494 12.409L20.9634 19.9972L16.7201 21.5416C15.8229 21.8681 15.0922 22.5377 14.6887 23.4031C14.2852 24.2684 14.2419 25.2586 14.5685 26.1558C14.895 27.053 15.5646 27.7837 16.43 28.1872C17.2953 28.5907 18.2855 28.6339 19.1827 28.3074L19.4984 28.1925L23.6772 33.4601C23.8338 33.6575 24.0486 33.8006 24.291 33.8691C24.5335 33.9376 24.7914 33.9281 25.0281 33.8419L26.1557 33.4315C26.4548 33.3226 26.6984 33.0994 26.8329 32.811C26.9674 32.5225 26.9818 32.1925 26.8729 31.8934L25.0745 26.9521L33.8084 27.9567C34.0115 27.9801 34.2172 27.9511 34.406 27.8726C34.5948 27.7941 34.7604 27.6686 34.8871 27.5082C35.0138 27.3477 35.0974 27.1575 35.13 26.9556C35.1625 26.7538 35.143 26.5469 35.0731 26.3548L30.148 12.8232Z" fill="#FF5F0B"/>
</g>
<circle cx="24" cy="24" r="23.5" stroke="#FF5F0B"/>
<defs>
<clipPath id="clip0">
<rect width="24" height="24" fill="white" transform="translate(8.61938 16.8279) rotate(-20)"/>
</clipPath>
</defs>
</svg>
