<svg width="18" height="18" viewBox="0 0 18 18" fill="none" xmlns="http://www.w3.org/2000/svg">
<path d="M1 15.5625C1 15.7349 1.03395 15.9055 1.09991 16.0648C1.16587 16.224 1.26255 16.3687 1.38442 16.4906C1.5063 16.6125 1.65099 16.7091 1.81023 16.7751C1.96947 16.8411 2.14014 16.875 2.3125 16.875C2.48486 16.875 2.65553 16.8411 2.81477 16.7751C2.97401 16.7091 3.1187 16.6125 3.24058 16.4906C3.36245 16.3687 3.45913 16.224 3.52509 16.0648C3.59105 15.9055 3.625 15.7349 3.625 15.5625C3.625 15.3901 3.59105 15.2195 3.52509 15.0602C3.45913 14.901 3.36245 14.7563 3.24058 14.6344C3.1187 14.5125 2.97401 14.4159 2.81477 14.3499C2.65553 14.2839 2.48486 14.25 2.3125 14.25C2.14014 14.25 1.96947 14.2839 1.81023 14.3499C1.65099 14.4159 1.5063 14.5125 1.38442 14.6344C1.26255 14.7563 1.16587 14.901 1.09991 15.0602C1.03395 15.2195 1 15.3901 1 15.5625ZM7.5625 15.5625C7.5625 15.9106 7.70078 16.2444 7.94692 16.4906C8.19306 16.7367 8.5269 16.875 8.875 16.875C9.2231 16.875 9.55694 16.7367 9.80308 16.4906C10.0492 16.2444 10.1875 15.9106 10.1875 15.5625C10.1875 15.2144 10.0492 14.8806 9.80308 14.6344C9.55694 14.3883 9.2231 14.25 8.875 14.25C8.5269 14.25 8.19306 14.3883 7.94692 14.6344C7.70078 14.8806 7.5625 15.2144 7.5625 15.5625ZM14.125 15.5625C14.125 15.9106 14.2633 16.2444 14.5094 16.4906C14.7556 16.7367 15.0894 16.875 15.4375 16.875C15.7856 16.875 16.1194 16.7367 16.3656 16.4906C16.6117 16.2444 16.75 15.9106 16.75 15.5625C16.75 15.2144 16.6117 14.8806 16.3656 14.6344C16.1194 14.3883 15.7856 14.25 15.4375 14.25C15.0894 14.25 14.7556 14.3883 14.5094 14.6344C14.2633 14.8806 14.125 15.2144 14.125 15.5625Z" fill="#4A5568" stroke="#4A5568"/>
<path d="M1 8.9375C1 9.10986 1.03395 9.28053 1.09991 9.43977C1.16587 9.59901 1.26255 9.7437 1.38442 9.86558C1.5063 9.98745 1.65099 10.0841 1.81023 10.1501C1.96947 10.2161 2.14014 10.25 2.3125 10.25C2.48486 10.25 2.65553 10.2161 2.81477 10.1501C2.97401 10.0841 3.1187 9.98745 3.24058 9.86558C3.36245 9.7437 3.45913 9.59901 3.52509 9.43977C3.59105 9.28053 3.625 9.10986 3.625 8.9375C3.625 8.76514 3.59105 8.59447 3.52509 8.43523C3.45913 8.27599 3.36245 8.1313 3.24058 8.00942C3.1187 7.88755 2.97401 7.79087 2.81477 7.72491C2.65553 7.65895 2.48486 7.625 2.3125 7.625C2.14014 7.625 1.96947 7.65895 1.81023 7.72491C1.65099 7.79087 1.5063 7.88755 1.38442 8.00942C1.26255 8.1313 1.16587 8.27599 1.09991 8.43523C1.03395 8.59447 1 8.76514 1 8.9375ZM7.5625 8.9375C7.5625 9.2856 7.70078 9.61944 7.94692 9.86558C8.19306 10.1117 8.5269 10.25 8.875 10.25C9.2231 10.25 9.55694 10.1117 9.80308 9.86558C10.0492 9.61944 10.1875 9.2856 10.1875 8.9375C10.1875 8.5894 10.0492 8.25556 9.80308 8.00942C9.55694 7.76328 9.2231 7.625 8.875 7.625C8.5269 7.625 8.19306 7.76328 7.94692 8.00942C7.70078 8.25556 7.5625 8.5894 7.5625 8.9375ZM14.125 8.9375C14.125 9.2856 14.2633 9.61944 14.5094 9.86558C14.7556 10.1117 15.0894 10.25 15.4375 10.25C15.7856 10.25 16.1194 10.1117 16.3656 9.86558C16.6117 9.61944 16.75 9.2856 16.75 8.9375C16.75 8.5894 16.6117 8.25556 16.3656 8.00942C16.1194 7.76328 15.7856 7.625 15.4375 7.625C15.0894 7.625 14.7556 7.76328 14.5094 8.00942C14.2633 8.25556 14.125 8.5894 14.125 8.9375Z" fill="#4A5568" stroke="#4A5568"/>
<path d="M1 2.3125C1 2.48486 1.03395 2.65553 1.09991 2.81477C1.16587 2.97401 1.26255 3.1187 1.38442 3.24058C1.5063 3.36245 1.65099 3.45913 1.81023 3.52509C1.96947 3.59105 2.14014 3.625 2.3125 3.625C2.48486 3.625 2.65553 3.59105 2.81477 3.52509C2.97401 3.45913 3.1187 3.36245 3.24058 3.24058C3.36245 3.1187 3.45913 2.97401 3.52509 2.81477C3.59105 2.65553 3.625 2.48486 3.625 2.3125C3.625 2.14014 3.59105 1.96947 3.52509 1.81023C3.45913 1.65099 3.36245 1.5063 3.24058 1.38442C3.1187 1.26255 2.97401 1.16587 2.81477 1.09991C2.65553 1.03395 2.48486 1 2.3125 1C2.14014 1 1.96947 1.03395 1.81023 1.09991C1.65099 1.16587 1.5063 1.26255 1.38442 1.38442C1.26255 1.5063 1.16587 1.65099 1.09991 1.81023C1.03395 1.96947 1 2.14014 1 2.3125ZM7.5625 2.3125C7.5625 2.6606 7.70078 2.99444 7.94692 3.24058C8.19306 3.48672 8.5269 3.625 8.875 3.625C9.2231 3.625 9.55694 3.48672 9.80308 3.24058C10.0492 2.99444 10.1875 2.6606 10.1875 2.3125C10.1875 1.9644 10.0492 1.63056 9.80308 1.38442C9.55694 1.13828 9.2231 1 8.875 1C8.5269 1 8.19306 1.13828 7.94692 1.38442C7.70078 1.63056 7.5625 1.9644 7.5625 2.3125ZM14.125 2.3125C14.125 2.6606 14.2633 2.99444 14.5094 3.24058C14.7556 3.48672 15.0894 3.625 15.4375 3.625C15.7856 3.625 16.1194 3.48672 16.3656 3.24058C16.6117 2.99444 16.75 2.6606 16.75 2.3125C16.75 1.9644 16.6117 1.63056 16.3656 1.38442C16.1194 1.13828 15.7856 1 15.4375 1C15.0894 1 14.7556 1.13828 14.5094 1.38442C14.2633 1.63056 14.125 1.9644 14.125 2.3125Z" fill="#4A5568" stroke="#4A5568"/>
</svg>
