<svg width="52" height="52" viewBox="0 0 52 52" fill="none" xmlns="http://www.w3.org/2000/svg">
<path fill-rule="evenodd" clip-rule="evenodd" d="M26 51.6C32.7896 51.6 39.301 48.9029 44.102 44.1019C48.9029 39.301 51.6 32.7895 51.6 26C51.6 19.2105 48.9029 12.699 44.102 7.89806C39.301 3.09713 32.7896 0.399994 26 0.399994C19.2105 0.399994 12.699 3.09713 7.89809 7.89806C3.09716 12.699 0.400024 19.2105 0.400024 26C0.400024 32.7895 3.09716 39.301 7.89809 44.1019C12.699 48.9029 19.2105 51.6 26 51.6ZM29.2 16.4C29.2 15.5513 28.8629 14.7374 28.2628 14.1373C27.6626 13.5371 26.8487 13.2 26 13.2C25.1513 13.2 24.3374 13.5371 23.7373 14.1373C23.1372 14.7374 22.8 15.5513 22.8 16.4V22.8H16.4C15.5513 22.8 14.7374 23.1371 14.1373 23.7373C13.5372 24.3374 13.2 25.1513 13.2 26C13.2 26.8487 13.5372 27.6626 14.1373 28.2627C14.7374 28.8629 15.5513 29.2 16.4 29.2H22.8V35.6C22.8 36.4487 23.1372 37.2626 23.7373 37.8627C24.3374 38.4628 25.1513 38.8 26 38.8C26.8487 38.8 27.6626 38.4628 28.2628 37.8627C28.8629 37.2626 29.2 36.4487 29.2 35.6V29.2H35.6C36.4487 29.2 37.2626 28.8629 37.8628 28.2627C38.4629 27.6626 38.8 26.8487 38.8 26C38.8 25.1513 38.4629 24.3374 37.8628 23.7373C37.2626 23.1371 36.4487 22.8 35.6 22.8H29.2V16.4Z" fill="#828282"/>
</svg>
