<svg width="16" height="16" viewBox="0 0 16 16" fill="none" xmlns="http://www.w3.org/2000/svg">
<path d="M1.33337 1.33335V5.50002H1.81837M1.81837 5.50002C2.37158 4.13179 3.36311 2.98578 4.63756 2.24157C5.91202 1.49737 7.39738 1.19703 8.86085 1.38764C10.3243 1.57824 11.6832 2.24902 12.7245 3.29483C13.7658 4.34065 14.4307 5.70241 14.615 7.16669M1.81837 5.50002H5.50004M14.6667 14.6667V10.5H14.1825M14.1825 10.5C13.6285 11.8674 12.6367 13.0126 11.3624 13.7561C10.0881 14.4996 8.60315 14.7996 7.14012 14.6091C5.67709 14.4185 4.31854 13.7482 3.27715 12.7031C2.23577 11.658 1.57034 10.2971 1.38504 8.83335M14.1825 10.5H10.5" stroke="#4F4F4F" stroke-width="2" stroke-linecap="round" stroke-linejoin="round"/>
</svg>
