<svg width="20" height="20" viewBox="0 0 20 20" fill="none" xmlns="http://www.w3.org/2000/svg">
<path d="M9.00003 12.1178V17.24C8.99973 17.6545 8.85317 18.0555 8.58617 18.3725C8.31917 18.6896 7.94886 18.9022 7.54048 18.9729C7.13209 19.0437 6.71184 18.968 6.35376 18.7593C5.99567 18.5506 5.72274 18.2222 5.58303 17.832L3.43603 11.682C2.58725 11.3211 1.88921 10.6791 1.46006 9.86267C1.0309 9.04627 0.896984 8.10668 1.08096 7.2029C1.26494 6.29912 1.75552 5.48665 2.46968 4.903C3.18384 4.31935 4.07771 4.00035 5.00003 4H6.83203C7.57646 4 8.30193 3.95932 9.00003 3.88216C12.1467 3.53435 14.7372 2.44535 16 1V5C16.7957 5 17.5587 5.31607 18.1213 5.87868C18.684 6.44129 19 7.20435 19 8C19 8.79565 18.684 9.55871 18.1213 10.1213C17.5587 10.6839 16.7957 11 16 11V15C14.7371 13.5546 12.1472 12.4656 9.00003 12.1178Z" fill="white"/>
<path d="M9.00003 3.882V17.24C8.99973 17.6545 8.85317 18.0555 8.58617 18.3725C8.31917 18.6896 7.94886 18.9022 7.54048 18.9729C7.13209 19.0437 6.71184 18.968 6.35376 18.7593C5.99567 18.5506 5.72274 18.2222 5.58303 17.832L3.43603 11.682M3.43603 11.682C2.58725 11.3211 1.88921 10.6791 1.46006 9.86267C1.0309 9.04627 0.896984 8.10668 1.08096 7.2029C1.26494 6.29912 1.75552 5.48665 2.46968 4.903C3.18384 4.31935 4.07771 4.00035 5.00003 4H6.83203C10.932 4 14.457 2.766 16 1V15C14.457 13.234 10.933 12 6.83203 12H5.00003C4.46266 12.0008 3.93068 11.892 3.43603 11.682ZM16 11C16.7957 11 17.5587 10.6839 18.1213 10.1213C18.684 9.55871 19 8.79565 19 8C19 7.20435 18.684 6.44129 18.1213 5.87868C17.5587 5.31607 16.7957 5 16 5V11Z" stroke="#333333" stroke-width="2" stroke-linecap="round" stroke-linejoin="round"/>
</svg>
