<svg width="70" height="70" viewBox="0 0 70 70" fill="none" xmlns="http://www.w3.org/2000/svg">
<g clip-path="url(#clip0)">
<path d="M46.2468 32.6612C45.8693 32.0071 45.0332 31.7832 44.3792 32.1608C43.7253 32.5383 43.5012 33.3745 43.8788 34.0284L49.4725 43.717C49.7282 44.1597 49.796 44.6755 49.6637 45.1693C49.5313 45.6632 49.2147 46.0759 48.7719 46.3316C48.329 46.5874 47.8132 46.6551 47.3195 46.5227C46.8258 46.3904 46.4131 46.0739 46.1574 45.6312L29.2039 16.267C28.9483 15.8243 28.8805 15.3086 29.0129 14.8149C29.1452 14.3211 29.4618 13.9083 29.9047 13.6526C30.3475 13.397 30.8632 13.3292 31.3572 13.4615C31.851 13.5939 32.2638 13.9105 32.5194 14.3533L37.7264 23.3721C38.1038 24.026 38.9399 24.25 39.5939 23.8725C40.2479 23.495 40.4719 22.6589 40.0943 22.0049L34.8874 12.9861C33.6059 10.7665 30.7574 10.0031 28.5375 11.2847C27.4622 11.9055 26.693 12.9079 26.3717 14.1072C26.194 14.7707 26.1657 15.4505 26.2804 16.1076L9.03688 37.0672L4.51559 39.6776C2.42831 40.8827 0.935203 42.8286 0.311355 45.1566C-0.312493 47.4847 0.00770277 49.9163 1.21288 52.0038C2.41792 54.0912 4.36384 55.5842 6.69188 56.208C7.46954 56.4164 8.25813 56.5193 9.04208 56.5193C9.60837 56.5193 10.1719 56.4648 10.7266 56.358L22.818 68.5582C23.7571 69.5058 25.0118 69.9996 26.2803 69.9996C27.114 69.9996 27.9536 69.7861 28.7129 69.3476C30.0311 68.5867 30.9031 67.2848 31.1052 65.7761C31.3073 64.2674 30.8087 62.782 29.7371 61.7008L27.785 59.7311L29.1244 58.9577C30.2279 58.3207 30.9578 57.2311 31.1272 55.9683C31.2966 54.7055 30.8795 53.4619 29.9827 52.5565L28.4149 50.9737L44.8335 48.2426C45.3453 48.6706 45.9481 48.986 46.6117 49.1637C47.0122 49.271 47.4186 49.3242 47.8224 49.3242C48.6279 49.3242 49.4228 49.1128 50.1391 48.6994C51.2143 48.0787 51.9835 47.0763 52.3048 45.8769C52.6261 44.6774 52.4614 43.4247 51.8405 42.3495L46.2468 32.6612ZM3.58085 50.6366C1.84698 47.6334 2.87962 43.7796 5.88278 42.0456L9.43487 39.9948L15.7239 50.8879L12.1703 52.9395C9.16745 54.6722 5.31458 53.6393 3.58085 50.6366ZM28.3952 65.4131C28.3066 66.075 27.924 66.6459 27.3458 66.9797C26.506 67.4649 25.4429 67.322 24.7602 66.6335L13.5362 55.3084L17.3624 53.0993L27.7951 63.6257C28.265 64.0998 28.4838 64.7514 28.3952 65.4131ZM28.0401 54.4808C28.3356 54.7792 28.4731 55.1889 28.4172 55.6051C28.3614 56.0211 28.1209 56.38 27.7574 56.5899L25.7948 57.723L20.4232 52.3032L25.1108 51.5235L28.0401 54.4808ZM18.3019 49.8841L11.5931 38.2642L27.549 18.8694L43.0762 45.7632L18.3019 49.8841Z" fill="#FF8F54"/>
<path d="M43.9437 13.9647C44.1726 14.1119 44.4288 14.1822 44.6823 14.1822C45.1318 14.1822 45.5719 13.9607 45.8332 13.5547L53.1967 2.11131C53.6054 1.47639 53.4217 0.630375 52.7868 0.221859C52.1519 -0.18693 51.3058 -0.00317973 50.8974 0.631742L43.5338 12.0751C43.1252 12.71 43.3087 13.556 43.9437 13.9647Z" fill="#FF8F54"/>
<path d="M68.6355 32.5654H53.4597C52.7046 32.5654 52.0925 33.1775 52.0925 33.9326C52.0925 34.6877 52.7046 35.2998 53.4597 35.2998H68.6355C69.3906 35.2998 70.0027 34.6877 70.0027 33.9326C70.0027 33.1775 69.3906 32.5654 68.6355 32.5654Z" fill="#FF8F54"/>
<path d="M49.2056 19.6008C48.8194 21.0422 47.329 21.9149 45.8829 21.5455C45.3407 21.4073 44.7689 21.6132 44.4394 22.0654C44.1101 22.5178 44.0896 23.1251 44.3878 23.5987C46.0138 26.1807 48.7863 27.5984 51.652 27.5983C53.1438 27.5982 54.6612 27.2138 56.0545 26.4094C57.8179 25.3913 59.1293 23.7718 59.7909 21.8422C61.7929 22.234 63.8509 21.9081 65.6144 20.8901C69.6843 18.5404 71.1774 13.485 69.0135 9.38094C68.7525 8.88589 68.2161 8.59987 67.6597 8.65907C67.1033 8.71827 66.639 9.11038 66.4878 9.64919C66.0846 11.086 64.5839 11.9407 63.1424 11.5545C60.1797 10.7604 57.1012 12.2116 55.7584 14.8579C52.7951 14.6962 49.9994 16.6384 49.2056 19.6008ZM56.2965 17.6921C57.0124 17.872 57.7418 17.4506 57.9441 16.7408C58.4917 14.8206 60.5065 13.6791 62.4348 14.1955C64.1699 14.6603 65.9479 14.2256 67.2638 13.1789C67.33 15.2927 66.2347 17.3743 64.2472 18.5218C62.7647 19.3777 60.9611 19.5031 59.299 18.8655C58.914 18.7177 58.4828 18.7518 58.1258 18.9581C57.7687 19.1643 57.5237 19.5205 57.4592 19.9278C57.1801 21.686 56.1699 23.1854 54.6875 24.0413C52.6997 25.1889 50.3495 25.0966 48.5519 23.9822C50.1163 23.3659 51.382 22.0434 51.8469 20.3085C52.3637 18.3798 54.36 17.2062 56.2965 17.6921Z" fill="#FF8F54"/>
<path d="M41.9861 29.3831C42.3457 29.3831 42.6984 29.2368 42.9527 28.9825C43.207 28.7282 43.3533 28.3754 43.3533 28.0159C43.3533 27.6563 43.207 27.3036 42.9527 27.0493C42.6984 26.795 42.3457 26.6487 41.9861 26.6487C41.6265 26.6487 41.2738 26.795 41.0195 27.0493C40.7652 27.3036 40.6189 27.6563 40.6189 28.0159C40.6189 28.3754 40.7652 28.7282 41.0195 28.9825C41.2738 29.2368 41.6265 29.3831 41.9861 29.3831Z" fill="#FF8F54"/>
</g>
<defs>
<clipPath id="clip0">
<rect width="70" height="70" fill="white"/>
</clipPath>
</defs>
</svg>
